<svg width="16" height="16" viewBox="0 0 16 16" fill="none" xmlns="http://www.w3.org/2000/svg">
  <path fill-rule="evenodd" clip-rule="evenodd" d="M0 1C0 0.447715 0.447715 0 1 0H15C15.5523 0 16 0.447715 16 1C16 1.55228 15.5523 2 15 2H1C0.447715 2 0 1.55228 0 1ZM7.29219 3.40454C7.67965 3.0171 8.30673 3.01362 8.69847 3.39674L12.6739 7.28469C13.0688 7.67085 13.0758 8.30397 12.6896 8.69882C12.3035 9.09366 11.6704 9.10071 11.2755 8.71455L8.99924 6.48837V15C8.99924 15.5523 8.55153 16 7.99924 16C7.44696 16 6.99924 15.5523 6.99924 15V6.5258L4.81814 8.70675C4.42761 9.09726 3.79444 9.09724 3.40393 8.7067C3.01342 8.31617 3.01344 7.683 3.40398 7.29249L7.29219 3.40454Z" fill="#7B828E"/>
  </svg>
  